<?xml version="1.0" encoding="utf-8"?>
<!-- Generator: Adobe Illustrator 24.1.1, SVG Export Plug-In . SVG Version: 6.00 Build 0)  -->
<svg version="1.1" id="Layer_1" xmlns="http://www.w3.org/2000/svg" xmlns:xlink="http://www.w3.org/1999/xlink" x="0px" y="0px"
	 viewBox="0 0 20 20" style="enable-background:new 0 0 20 20;" xml:space="preserve">
<style type="text/css">
	.st0{fill:#333333;}
</style>
<path class="st0" d="M6.6,12.8L4.4,15c-0.6,0.6-1.6,1-2.4,1H0v-2h2c0.3,0,0.8-0.2,1-0.4l2.2-2.2L6.6,12.8z M16,4V1l4,4l-4,4V6h-2
	c-0.3,0-0.8,0.2-1,0.4l-2.2,2.2L9.4,7.2L11.6,5c0.6-0.6,1.6-1,2.4-1H16L16,4z M16,14v-3l4,4l-4,4v-3h-2c-0.8,0-1.8-0.4-2.4-1L3,6.4
	C2.8,6.2,2.3,6,2,6H0V4h2c0.8,0,1.8,0.4,2.4,1l8.6,8.6c0.2,0.2,0.7,0.4,1,0.4H16z"/>
</svg>
